<?xml version="1.0" standalone="no"?>
<!DOCTYPE svg PUBLIC "-//W3C//DTD SVG 1.1//EN" "http://www.w3.org/Graphics/SVG/1.1/DTD/svg11.dtd" >
<svg xmlns="http://www.w3.org/2000/svg">
<metadata>
This is a custom SVG webfont generated by Font Squirrel.
Copyright   : ITC StoneTM is a trademark of International Typeface Corporation and may be registered in certain jurisdictions Digitized data C 2002 Agfa Monotype Corporation All rights reserved ITC Stone Sans is designed by Sumner Stone
Designer    : Sumner Stone
Foundry     : International Typeface Corporation
Foundry URL : httpwwwitcfontscom
</metadata>
<defs>
<font id="webfontwYJp5IqX" horiz-adv-x="1176" >
<font-face units-per-em="2048" ascent="1552" descent="-496" />
<missing-glyph horiz-adv-x="537" />
<glyph unicode=" "  horiz-adv-x="537" />
<glyph unicode="&#x09;" horiz-adv-x="537" />
<glyph unicode="&#xa0;" horiz-adv-x="537" />
<glyph unicode="!" horiz-adv-x="612" d="M403 1501l-34 -1118h-129l-33 1118h196zM440 117q0 -56 -39 -94.5t-96 -38.5t-95 37.5t-38 93.5q0 60 39 98.5t100 38.5q54 0 91.5 -39.5t37.5 -95.5z" />
<glyph unicode="&#x22;" horiz-adv-x="1040" d="M764 1350q0 -19 -12 -131l-37 -336l-6 -59q-8 -36 -35 -36t-35 37l-6 58l-37 336q-12 112 -12 131q0 108 90 108t90 -108zM457 1350q0 -19 -13 -131l-36 -336q-8 -65 -14.5 -80t-28.5 -15q-26 0 -34 37q-3 29 -5 58l-37 336q-13 112 -13 131q0 108 91 108q90 0 90 -108z " />
<glyph unicode="#" horiz-adv-x="1231" d="M1147 999l-21 -118h-208l-54 -301h209l-20 -117h-209l-82 -463h-127l80 463h-271l-84 -463h-124l81 463h-233l22 117h232l53 301h-233l20 118h234l75 433h127l-75 -433h272l76 433h129l-78 -433h209zM791 881h-273l-53 -301h270z" />
<glyph unicode="$" d="M1020 395q0 -152 -113 -249q-98 -84 -258 -111v-187h-131v181q-216 6 -360 137l84 113q148 -105 276 -113v526q-136 91 -203 152q-122 112 -122 250q0 136 114 226q101 80 244 93v146h133v-146q155 -15 279 -127l-86 -96q-98 74 -193 90v-463q169 -113 226 -171 q110 -113 110 -251zM551 872v412q-182 -42 -182 -180q0 -63 36 -108.5t146 -123.5zM831 375q0 135 -182 258v-465q182 49 182 207z" />
<glyph unicode="%" horiz-adv-x="1788" d="M1710 428q0 -194 -99.5 -318t-254.5 -124q-154 0 -252 124t-98 316q0 197 99 321.5t257 124.5q150 0 249 -126t99 -318zM1436 1432l-924 -1432h-156l924 1432h156zM784 1001q0 -193 -99.5 -318.5t-254.5 -125.5q-153 0 -252.5 125t-99.5 317q0 197 100 321t258 124 q151 0 249.5 -125.5t98.5 -317.5zM1530 426q0 158 -46.5 248t-127.5 90q-76 0 -121 -91.5t-45 -244.5q0 -155 45.5 -244.5t122.5 -89.5q78 0 125 89.5t47 242.5zM602 999q0 159 -45.5 247.5t-126.5 88.5q-75 0 -120.5 -90t-45.5 -244q0 -155 46 -245t124 -90q77 0 122.5 90 t45.5 243z" />
<glyph unicode="&#x26;" horiz-adv-x="1667" d="M1544 70l-182 -95l-234 215q-184 -215 -479 -215q-214 0 -356.5 122.5t-142.5 308.5q0 251 307 413q-187 166 -187 320q0 136 110 227.5t271 91.5q159 0 293 -100l-70 -111q-104 68 -206 68q-91 0 -144 -44.5t-53 -119.5q0 -116 213 -313l436 -404q31 70 31 150 q0 156 -90 297h-199l60 129h614l-66 -129h-241q67 -121 67 -267q0 -140 -67 -278zM1028 276l-479 447q-187 -103 -187 -295q0 -140 90.5 -228.5t231.5 -88.5q196 0 344 165z" />
<glyph unicode="'" horiz-adv-x="655" d="M408 1350q0 -19 -13 -131l-37 -336q-7 -65 -13.5 -80t-29.5 -15q-26 0 -33 37l-6 58l-36 336q-13 112 -13 131q0 108 90 108q91 0 91 -108z" />
<glyph unicode="(" horiz-adv-x="727" d="M696 -330l-82 -76q-244 157 -379 405.5t-135 539.5q0 597 508 979l88 -93q-190 -162 -297.5 -397.5t-107.5 -488.5q0 -537 405 -869z" />
<glyph unicode=")" horiz-adv-x="727" d="M625 569q0 -596 -504 -975l-90 93q191 165 298 397.5t107 486.5q0 259 -105 484.5t-298 382.5l80 80q242 -157 377 -408t135 -541z" />
<glyph unicode="*" horiz-adv-x="907" d="M838 1090l-299 -58l209 -227l-142 -105l-151 267l-150 -267l-143 105l211 227l-303 58l57 165l279 -127l-37 304h174l-37 -304l280 127z" />
<glyph unicode="+" d="M1106 451h-449v-451h-139v451h-448v141h448v446h139v-446h449v-141z" />
<glyph unicode="," horiz-adv-x="588" d="M438 100q0 -65 -69 -166l-219 -317l-91 53l148 316q-1 14 -21 52t-20 75q0 53 41 90t94 37q137 0 137 -140z" />
<glyph unicode="-" horiz-adv-x="651" d="M580 410h-508v153h508v-153z" />
<glyph unicode="." horiz-adv-x="588" d="M428 117q0 -56 -39 -94.5t-96 -38.5t-95 37.5t-38 93.5q0 60 39 98.5t100 38.5q54 0 91.5 -39.5t37.5 -95.5z" />
<glyph unicode="/" horiz-adv-x="778" d="M725 1503l-539 -1724h-133l537 1724h135z" />
<glyph unicode="0" d="M1110 719q0 -322 -147.5 -533t-372.5 -211q-226 0 -374 210t-148 528q0 327 148 536t380 209q220 0 367 -211t147 -528zM899 713q0 286 -82 446t-229 160q-142 0 -225.5 -161.5t-83.5 -438.5q0 -281 84 -442.5t229 -161.5q141 0 224 161t83 437z" />
<glyph unicode="1" d="M702 0h-192v1272l-281 -117l-51 123l391 156h133v-1434z" />
<glyph unicode="2" d="M1049 0h-959v109q376 389 512 542q223 252 223 410q0 109 -66 178.5t-171 69.5q-151 0 -307 -148l-99 90q180 207 436 207q190 0 306 -102.5t116 -270.5q0 -139 -86 -269t-379 -431l-215 -227h689v-158z" />
<glyph unicode="3" d="M1028 406q0 -185 -143 -308t-357 -123q-188 0 -358 82l55 125q132 -67 281 -67q138 0 222.5 78.5t84.5 205.5q0 91 -48 161t-130 97q-92 31 -281 31v121q171 11 264 76q113 78 113 227q0 97 -57 152t-160 55q-142 0 -276 -96l-60 120q183 115 371 115q175 0 282 -90 t107 -238q0 -237 -266 -354q356 -75 356 -370z" />
<glyph unicode="4" d="M1053 410h-185v-410h-174v410h-639v92l707 932h106v-881h185v-143zM694 553v594q-168 -258 -422 -594h422z" />
<glyph unicode="5" d="M1016 453q0 -204 -159 -341t-396 -137q-227 0 -383 134l69 127q149 -121 328 -121q141 0 233.5 89t92.5 224q0 117 -75 210t-208 138q-74 26 -268 51q-10 1 -31 4l178 603h559l-41 -154h-391l-92 -317q214 -33 334 -101q112 -63 181 -175t69 -234z" />
<glyph unicode="6" d="M1079 453q0 -201 -141.5 -339.5t-345.5 -138.5q-220 0 -351 146q-126 140 -126 362q0 371 251 652.5t617 322.5v-137q-221 -35 -393.5 -184t-235.5 -357q151 109 303 109q188 0 305 -121.5t117 -314.5zM866 430q0 141 -76.5 230.5t-197.5 89.5q-115 0 -189.5 -90 t-74.5 -230q0 -138 75 -226.5t193 -88.5t194 88.5t76 226.5z" />
<glyph unicode="7" horiz-adv-x="1174" d="M1075 1280l-719 -1298l-184 45l711 1253h-676v154h868v-154z" />
<glyph unicode="8" d="M1069 379q0 -175 -138.5 -289.5t-348.5 -114.5q-208 0 -343 112t-135 284q0 243 287 401q-235 119 -235 330q0 171 141 269q125 87 303 87q177 0 292.5 -92t115.5 -233q0 -96 -59.5 -176t-207.5 -181q328 -133 328 -397zM805 1130q0 94 -59.5 149.5t-157.5 55.5 q-104 0 -166 -56.5t-62 -152.5q0 -161 240 -276q205 132 205 280zM866 373q0 103 -73.5 177.5t-243.5 143.5q-133 -72 -187.5 -142t-54.5 -169q0 -120 78.5 -196t202.5 -76q119 0 198.5 75.5t79.5 186.5z" />
<glyph unicode="9" d="M1061 950q0 -371 -252 -652t-619 -323v138q219 33 394.5 183t236.5 355q-153 -108 -303 -108q-187 0 -303.5 122t-116.5 316q0 201 139.5 339t344.5 138q222 0 353 -144q126 -139 126 -364zM846 1001q0 142 -75.5 230t-197.5 88q-113 0 -187.5 -89.5t-74.5 -228.5 q0 -138 75.5 -228.5t193.5 -90.5q116 0 191 90.5t75 228.5z" />
<glyph unicode=":" horiz-adv-x="588" d="M428 852q0 -55 -39 -94t-96 -39t-95 37.5t-38 93.5q0 60 39 98.5t100 38.5q54 0 91.5 -39t37.5 -96zM428 117q0 -56 -39 -94.5t-96 -38.5t-95 37.5t-38 93.5q0 60 39 98.5t100 38.5q54 0 91.5 -39.5t37.5 -95.5z" />
<glyph unicode=";" horiz-adv-x="588" d="M428 852q0 -55 -39 -94t-96 -39t-95 37.5t-38 93.5q0 60 39 98.5t100 38.5q54 0 91.5 -39t37.5 -96zM410 100q0 -65 -70 -166l-219 -317l-90 53l147 316q-1 14 -21 52t-20 75q0 53 41.5 90t93.5 37q138 0 138 -140z" />
<glyph unicode="&#x3c;" d="M965 94l-754 361v127l754 360v-149l-596 -275l596 -276v-148z" />
<glyph unicode="=" d="M1106 651h-1036v142h1036v-142zM1106 256h-1036v139h1036v-139z" />
<glyph unicode="&#x3e;" d="M965 457l-754 -359v148l594 276l-594 275v149l754 -360v-129z" />
<glyph unicode="?" horiz-adv-x="963" d="M889 1182q0 -121 -78 -240q-16 -26 -168 -231q-84 -113 -111 -168t-34 -133h-152v32q0 89 29 160t108 178q109 147 147 224.5t38 154.5q0 92 -55 146.5t-148 54.5q-136 0 -262 -137l-92 94q159 186 387 186q167 0 272 -76q119 -86 119 -245zM563 117q0 -56 -39 -94.5 t-96 -38.5t-95 37.5t-38 93.5q0 60 39 98.5t100 38.5q54 0 91.5 -39.5t37.5 -95.5z" />
<glyph unicode="@" horiz-adv-x="1575" d="M1505 821q0 -201 -107 -354.5t-247 -153.5q-141 0 -158 140q-95 -150 -268 -150q-132 0 -218.5 98t-86.5 248q0 180 110.5 307t266.5 127q169 0 233 -149l23 125h131l-86 -443q-15 -73 -15 -104q0 -38 21.5 -64t52.5 -26q89 0 159 121t70 276q0 229 -157 379t-402 150 q-264 0 -445 -187.5t-181 -453.5q0 -272 181 -448.5t454 -176.5q224 0 444 100l33 -119q-209 -92 -475 -92q-337 0 -549 199q-217 204 -217 539q0 316 217.5 532.5t533.5 216.5q292 0 487 -182t195 -455zM987 750q0 90 -48 143t-130 53q-97 0 -169.5 -87.5t-72.5 -207.5 q0 -97 52 -157t137 -60q97 0 164 92t67 224z" />
<glyph unicode="A" horiz-adv-x="1253" d="M1255 0h-217l-145 420h-559l-156 -420h-178l588 1434h131zM844 563l-219 617l-238 -617h457z" />
<glyph unicode="B" horiz-adv-x="1174" d="M1077 412q0 -221 -200 -338q-127 -74 -349 -74h-356v1434h375q233 0 325 -62q119 -78 119 -237q0 -282 -299 -359q120 -8 193 -43q89 -42 140.5 -128.5t51.5 -192.5zM799 1094q0 119 -101 172q-54 28 -202 28h-131v-477h71q176 0 271 84q92 82 92 193zM868 403 q0 162 -129 230q-81 43 -235 43h-139v-537h157q168 0 246 58q100 73 100 206z" />
<glyph unicode="C" horiz-adv-x="1397" d="M1335 1315l-82 -125q-183 125 -379 125q-248 0 -402.5 -163t-154.5 -427t161.5 -435t410.5 -171q192 0 352 104l76 -117q-200 -131 -465 -131q-329 0 -541.5 205t-212.5 525q0 322 224 537.5t561 215.5q236 0 452 -143z" />
<glyph unicode="D" horiz-adv-x="1509" d="M1411 756q0 -476 -375 -664q-184 -92 -518 -92h-346v1434h360q256 0 394.5 -31.5t242.5 -114.5q242 -191 242 -532zM1194 739q0 414 -317 517q-103 34 -349 34h-157v-1147h147q195 0 297.5 24.5t185.5 90.5q193 153 193 481z" />
<glyph unicode="E" horiz-adv-x="1022" d="M973 0h-801v1434h713v-144h-514v-465h503v-145h-503v-537h602v-143z" />
<glyph unicode="F" horiz-adv-x="989" d="M885 1290h-514v-491h503v-146h-503v-653h-199v1434h713v-144z" />
<glyph unicode="G" horiz-adv-x="1518" d="M1370 74q-277 -99 -514 -99q-329 0 -543.5 206.5t-214.5 525.5q0 327 226 539t575 212q251 0 461 -137l-84 -119q-180 113 -371 113q-264 0 -426 -160.5t-162 -421.5q0 -275 162 -444.5t426 -169.5q128 0 264 51v485h201v-581z" />
<glyph unicode="H" horiz-adv-x="1430" d="M1260 0h-199v711h-690v-711h-199v1434h199v-576h690v576h199v-1434z" />
<glyph unicode="I" horiz-adv-x="543" d="M371 0h-199v1434h199v-1434z" />
<glyph unicode="J" horiz-adv-x="559" d="M387 94q0 -149 -7 -196q-15 -107 -75 -177q-94 -109 -268 -112v121q117 32 143 154q8 37 8 231v1319h199v-1340z" />
<glyph unicode="K" horiz-adv-x="1217" d="M1204 53l-198 -76l-635 768v-745h-199v1434h199v-643l620 661l137 -88l-557 -582z" />
<glyph unicode="L" horiz-adv-x="983" d="M967 0h-795v1434h199v-1291h596v-143z" />
<glyph unicode="M" horiz-adv-x="1868" d="M1696 0h-199v834q0 102 12 360q-61 -165 -135 -317l-426 -877h-94l-405 877q-23 47 -127 317q12 -217 12 -360v-834h-162v1434h211l537 -1170l575 1170h201v-1434z" />
<glyph unicode="N" horiz-adv-x="1497" d="M1325 0h-139l-852 1116v-1116h-162v1434h127l862 -1123v1123h164v-1434z" />
<glyph unicode="O" horiz-adv-x="1630" d="M1532 735q0 -325 -194 -539q-201 -221 -523 -221q-321 0 -522 221q-195 214 -195 537q0 318 204.5 521.5t520.5 203.5q302 0 505.5 -207t203.5 -516zM1313 713q0 272 -138 437t-368 165q-234 0 -369 -188q-121 -167 -121 -410q0 -248 123 -414q136 -184 375 -184 q222 0 360 164t138 430z" />
<glyph unicode="P" horiz-adv-x="1098" d="M1022 1036q0 -209 -152 -339.5t-401 -135.5v129q148 9 223 60q119 80 119 260q0 182 -129 245q-71 35 -219 35h-92v-1290h-199v1434h295q268 0 383 -72q172 -107 172 -326z" />
<glyph unicode="Q" horiz-adv-x="1630" d="M1618 -205l-90 -135l-633 317q-29 -2 -74 -2q-328 0 -528 214q-195 209 -195 540q0 312 206 520.5t513 208.5q306 0 510.5 -208.5t204.5 -514.5q0 -505 -440 -694zM1313 713q0 272 -138 437t-368 165q-234 0 -369 -188q-121 -167 -121 -410q0 -248 123 -414 q136 -184 375 -184q222 0 360 164t138 430z" />
<glyph unicode="R" horiz-adv-x="1137" d="M1114 35l-203 -60l-331 619h-209v-594h-199v1434h334q253 0 354 -78q137 -106 137 -295q0 -263 -239 -414zM786 1044q0 143 -93 209q-55 37 -193 37h-129v-551h90q171 0 248 85t77 220z" />
<glyph unicode="S" horiz-adv-x="1090" d="M983 362q0 -168 -131 -277.5t-334 -109.5q-223 0 -409 136l94 133q175 -125 317 -125q114 0 184 61.5t70 163.5q0 113 -125 223q-30 30 -252 201q-221 164 -221 344q0 150 123.5 248t310.5 98q198 0 357 -129l-109 -117q-132 103 -254 103q-97 0 -157 -52t-60 -137 q0 -98 121 -196q22 -19 225 -172q140 -105 195 -193t55 -203z" />
<glyph unicode="T" horiz-adv-x="1133" d="M1124 1290h-458v-1290h-201v1290h-457v144h1116v-144z" />
<glyph unicode="U" horiz-adv-x="1409" d="M1260 621q0 -195 -22.5 -287t-90.5 -174q-152 -185 -449 -185q-349 0 -483 246q-45 83 -57 203q-6 58 -6 213v797h198v-801q0 -145 9 -204q15 -113 71 -187q92 -123 279 -123q245 0 329 198q37 88 37 320v797h185v-813z" />
<glyph unicode="V" horiz-adv-x="1212" d="M1225 1425l-574 -1425h-133l-528 1413l203 39l411 -1173l440 1173z" />
<glyph unicode="W" horiz-adv-x="1888" d="M1892 1423l-442 -1423h-170l-340 1143l-348 -1143h-176l-420 1411l188 41l338 -1194l352 1176h156l348 -1176l355 1194z" />
<glyph unicode="X" horiz-adv-x="1317" d="M1262 18l-215 -38l-424 665l-385 -665l-181 38l465 760l-424 627l213 47l330 -520l307 520l182 -27l-393 -624z" />
<glyph unicode="Y" horiz-adv-x="1104" d="M1112 1425l-487 -804v-621h-199v621l-432 790l203 41l346 -711l391 711z" />
<glyph unicode="Z" horiz-adv-x="1194" d="M1153 0h-1110v70l838 1220h-701v144h969v-58l-832 -1233h836v-143z" />
<glyph unicode="[" horiz-adv-x="682" d="M621 -391h-461v1894h461v-117h-279v-1660h279v-117z" />
<glyph unicode="\" horiz-adv-x="934" d="M803 -221h-133l-539 1724h135z" />
<glyph unicode="]" horiz-adv-x="682" d="M520 -391h-459v117h277v1660h-277v117h459v-1894z" />
<glyph unicode="^" d="M987 893h-158l-241 422l-240 -422h-160l301 541h195z" />
<glyph unicode="_" horiz-adv-x="1073" d="M1073 -297h-1073v166h1073v-166z" />
<glyph unicode="`" horiz-adv-x="1073" d="M600 1231l-59 -43l-443 176l90 135z" />
<glyph unicode="a" horiz-adv-x="1030" d="M930 0h-199q-20 55 -23 68q-6 27 -8 86q-131 -179 -331 -179q-124 0 -204 80q-83 81 -83 209q0 194 211 301q102 52 235 88q100 27 172 39q-25 238 -221 238q-128 0 -260 -111l-72 92q150 138 365 138q218 0 309 -129q37 -53 49 -103q15 -61 15 -192v-297q0 -217 45 -328 zM707 471l-2 100q-6 0 -123 -26q-310 -69 -310 -256q0 -78 44 -124t114 -46q96 0 170 66q61 54 82 124q25 86 25 157v5z" />
<glyph unicode="b" horiz-adv-x="1227" d="M1145 535q0 -243 -140 -401.5t-354 -158.5q-186 0 -325 162v-137h-179v1503h179v-635q130 181 362 181q204 0 330.5 -142.5t126.5 -371.5zM948 526q0 183 -81.5 288.5t-221.5 105.5q-145 0 -232 -115.5t-87 -306.5q0 -184 86 -289t237 -105q122 0 191 78q108 124 108 344 z" />
<glyph unicode="c" horiz-adv-x="981" d="M934 82q-148 -107 -338 -107q-228 0 -372 155q-142 152 -142 382q0 234 152 385.5t387 151.5q162 0 288 -84l-63 -103q-109 58 -209 58q-161 0 -259.5 -109t-98.5 -287q0 -193 96.5 -306.5t261.5 -113.5q126 0 246 80z" />
<glyph unicode="d" horiz-adv-x="1225" d="M1077 0h-176v160q-151 -185 -358 -185q-216 0 -344 163q-117 150 -117 372q0 233 140 386t353 153q201 0 326 -154v608h176v-1503zM903 530q0 177 -86.5 283.5t-230.5 106.5q-142 0 -224.5 -104t-82.5 -284q0 -194 83 -311t222 -117q143 0 231 118t88 308z" />
<glyph unicode="e" horiz-adv-x="1044" d="M971 500h-695q5 -180 101.5 -288t251.5 -108q136 0 268 89l53 -99q-185 -119 -362 -119q-218 0 -357 142q-149 153 -149 409q0 229 133.5 376t345.5 147q287 0 371 -254q36 -110 39 -295zM793 616q0 129 -50 208q-61 96 -184 96q-117 0 -191.5 -81.5t-84.5 -222.5h510z " />
<glyph unicode="f" horiz-adv-x="608" d="M625 1460l-41 -92q-49 14 -92 14q-100 0 -132 -82q-12 -31 -12 -147v-129h246v-109h-246v-915h-182v915h-166v109h166v98q0 181 53 256q89 125 248 125q84 0 158 -43z" />
<glyph unicode="g" horiz-adv-x="1227" d="M1079 162q0 -206 -18 -285q-91 -389 -520 -389q-244 0 -412 104l49 121q184 -96 346 -96q265 0 340 199q33 86 33 272v74q-150 -187 -348 -187q-219 0 -347 158q-120 147 -120 371q0 233 141.5 389t354.5 156q206 0 319 -164v139h182v-862zM897 530q0 181 -85.5 285.5 t-233.5 104.5q-139 0 -219 -103.5t-80 -284.5q0 -192 83.5 -310t219.5 -118q139 0 227 119t88 307z" />
<glyph unicode="h" horiz-adv-x="1192" d="M1040 0h-182v573q0 166 -37 234q-57 106 -203 106q-186 0 -253 -151q-29 -65 -29 -223v-539h-184v1503h184v-608q153 154 354 154q257 0 326 -205q24 -73 24 -271v-573z" />
<glyph unicode="i" horiz-adv-x="487" d="M360 1348q0 -48 -34.5 -82.5t-81.5 -34.5q-48 0 -82.5 33t-34.5 79q0 121 119 121q48 0 81 -33t33 -83zM336 0h-184v1024h184v-1024z" />
<glyph unicode="j" horiz-adv-x="539" d="M387 1341q0 -47 -34.5 -81.5t-82.5 -34.5q-47 0 -81.5 33t-34.5 79q0 121 118 121q49 0 82 -33t33 -84zM360 -76q0 -431 -323 -436v92q89 19 117 109q22 73 22 311v1024h184v-1100z" />
<glyph unicode="k" horiz-adv-x="999" d="M983 55l-168 -75l-453 579v-559h-184v1503h184v-893h31l400 430l137 -77l-383 -385z" />
<glyph unicode="l" horiz-adv-x="537" d="M360 0h-184v1503h184v-1503z" />
<glyph unicode="m" horiz-adv-x="1849" d="M1686 0h-183v596q0 171 -47 235q-60 82 -176 82q-161 0 -223 -120q-33 -64 -33 -224v-569h-184v596q0 154 -41 221q-59 96 -183 96q-158 0 -223 -127q-31 -60 -31 -204v-582h-184v1024h184v-129q136 154 328 154q197 0 305 -154q183 154 359 154q214 0 297 -177 q35 -73 35 -270v-602z" />
<glyph unicode="n" horiz-adv-x="1233" d="M1067 0h-182v573q0 166 -37 234q-58 106 -203 106q-186 0 -254 -151q-29 -65 -29 -223v-539h-184v1024h184v-129q151 154 355 154q256 0 325 -205q25 -72 25 -271v-573z" />
<glyph unicode="o" horiz-adv-x="1194" d="M1098 520q0 -238 -140.5 -391.5t-359.5 -153.5q-221 0 -362.5 152t-141.5 391q0 235 142 383t366 148q212 0 354 -152t142 -377zM901 520q0 186 -82.5 293t-226.5 107q-139 0 -220 -108t-81 -294q0 -197 81 -305.5t228 -108.5q141 0 221 110.5t80 305.5z" />
<glyph unicode="p" horiz-adv-x="1270" d="M1176 535q0 -243 -140 -401.5t-354 -158.5q-186 0 -326 162v-649h-178v1536h178v-156q131 181 363 181q204 0 330.5 -142.5t126.5 -371.5zM979 526q0 183 -81.5 288.5t-221.5 105.5q-145 0 -232.5 -115.5t-87.5 -306.5q0 -184 86 -289t238 -105q153 0 233 140 q66 115 66 282z" />
<glyph unicode="q" horiz-adv-x="1270" d="M1094 -512h-176v672q-152 -185 -359 -185q-215 0 -343 163q-118 150 -118 372q0 233 140 386t354 153q203 0 326 -154v129h176v-1536zM920 530q0 177 -87 283.5t-231 106.5q-142 0 -224.5 -104t-82.5 -284q0 -194 83.5 -311t221.5 -117q143 0 231.5 118t88.5 308z" />
<glyph unicode="r" horiz-adv-x="731" d="M756 946l-88 -125q-103 51 -138 51q-104 0 -143 -127q-27 -87 -27 -260v-485h-184v1024h184v-143l43 65q68 103 168 103q85 0 185 -103z" />
<glyph unicode="s" horiz-adv-x="846" d="M745 274q0 -132 -96 -215.5t-250 -83.5q-175 0 -325 131l90 103q113 -105 219 -105q79 0 125.5 40.5t46.5 109.5q0 59 -31.5 99t-140.5 118q-125 90 -163 129q-81 84 -81 180q0 115 93.5 192t230.5 77q145 0 266 -93l-74 -94q-84 66 -186 66q-66 0 -109 -32t-43 -83 q0 -69 123 -158q189 -136 247 -208t58 -173z" />
<glyph unicode="t" horiz-adv-x="692" d="M709 41q-111 -66 -224 -66q-161 0 -241 121q-45 68 -45 266v553h-144v109h144v248l182 59v-307h268v-109h-268v-540q0 -157 30.5 -214t114.5 -57q70 0 138 37z" />
<glyph unicode="u" horiz-adv-x="1233" d="M1055 0h-183v129q-153 -154 -354 -154q-259 0 -328 205q-24 73 -24 271v573h184v-573q0 -166 37 -234q58 -106 203 -106q183 0 252 153q30 69 30 225v535h183v-1024z" />
<glyph unicode="v" horiz-adv-x="1040" d="M1010 1006l-441 -1006h-116l-424 991l178 49l319 -794l330 794z" />
<glyph unicode="w" horiz-adv-x="1696" d="M1634 1016l-368 -1016h-121l-301 784l-309 -784h-121l-353 1001l168 43l267 -800l301 780h121l299 -780l262 800z" />
<glyph unicode="x" horiz-adv-x="999" d="M969 61l-166 -81l-314 456l-325 -456l-133 81l377 486l-318 414l166 81l260 -374l268 374l134 -63l-320 -418z" />
<glyph unicode="y" horiz-adv-x="1040" d="M1010 1004l-512 -1156q-87 -194 -167 -266q-105 -94 -294 -94h-43v137h45q106 0 159 28t101 107q30 51 143 297l-415 934l180 49l315 -792l336 792z" />
<glyph unicode="z" horiz-adv-x="963" d="M903 0h-858v59l635 848h-516v117h739v-80l-604 -823h604v-121z" />
<glyph unicode="{" horiz-adv-x="768" d="M645 -397q-201 0 -284 121q-68 102 -68 317v199q0 128 -32.5 184.5t-127.5 91.5v88q110 39 140 120q18 47 18 183v166q0 214 69 317q84 123 285 128v-109q-98 -22 -136 -90q-32 -57 -32 -170v-86q0 -272 -16 -328q-31 -103 -154 -176q137 -86 160 -209q10 -55 10 -297 v-84q0 -223 168 -258v-108z" />
<glyph unicode="|" horiz-adv-x="463" d="M303 -514h-143v1948h143v-1948z" />
<glyph unicode="}" horiz-adv-x="768" d="M637 516q-110 -38 -140 -120q-18 -47 -18 -183v-166q0 -213 -69 -317q-84 -123 -285 -127v108q98 22 136 90q32 57 32 170v86q0 273 16 328q31 103 154 176q-137 86 -160 209q-10 56 -10 297v84q0 223 -168 258v109q201 0 284 -122q68 -101 68 -317v-198 q0 -128 32.5 -185t127.5 -92v-88z" />
<glyph unicode="~" d="M1006 604q-52 -109 -107 -151q-68 -54 -149 -54q-55 0 -244 82q-66 29 -105 29q-83 0 -147 -123l-84 55q22 44 66 117q69 92 176 92q64 0 192 -57q119 -53 164 -53q85 0 152 112z" />
<glyph unicode="&#xa0;" />
<glyph unicode="&#xa1;" horiz-adv-x="612" d="M440 918q0 -61 -39 -99.5t-100 -38.5q-54 0 -91.5 39.5t-37.5 95.5t39.5 95t95.5 39q57 0 95 -38t38 -93zM406 -469h-197l35 1118h129q10 -434 33 -1118z" />
<glyph unicode="&#xa2;" d="M1020 311q-152 -106 -318 -106q-44 0 -102 10l-33 -145h-137l41 180q-313 138 -313 495q0 176 86 307q90 135 252 191q64 22 159 31q23 2 35 2q11 44 29 137h141l-37 -149q95 -19 158 -66l-59 -111q-69 33 -125 46l-168 -781q56 -14 100 -14q108 0 236 76zM659 1141 q-309 -58 -309 -387q0 -229 152 -351z" />
<glyph unicode="&#xa3;" d="M1122 106q-136 -131 -305 -131q-67 0 -184 15q-252 30 -365 30q-102 0 -215 -22v129q119 47 162 125q40 73 68 283l22 170h-207v112h219l17 127q21 166 47 239t86 138q126 135 332 135q183 0 303 -137l-88 -90q-108 88 -209 88q-164 0 -225 -133q-33 -71 -48 -230 l-12 -137h299v-112h-311l-14 -123q-24 -199 -47.5 -267t-100.5 -149q67 -2 222 -19q142 -16 223 -16q135 0 243 78z" />
<glyph unicode="&#xa4;" horiz-adv-x="1143" d="M1104 299l-94 -94l-160 160q-135 -95 -275 -95q-136 0 -276 95l-160 -160l-96 94l160 164q-94 129 -94 270q0 138 96 268l-166 162l98 97l160 -164q133 96 274 96q144 0 273 -94l162 162l96 -99l-160 -157q94 -138 94 -273q0 -134 -92 -268zM883 731q0 131 -92 221 t-224 90q-124 0 -214.5 -92t-90.5 -219q0 -128 91 -219.5t218 -91.5q128 0 220 92t92 219z" />
<glyph unicode="&#xa5;" d="M1153 1425l-340 -559h289v-98h-344l-94 -156v-61h438v-96h-438v-455h-191v455h-428v96h428v61l-88 156h-340v98h285l-301 541l209 41l352 -686l387 686z" />
<glyph unicode="&#xa6;" horiz-adv-x="463" d="M303 743h-143v760h143v-760zM303 -391h-143v760h143v-760z" />
<glyph unicode="&#xa7;" horiz-adv-x="1155" d="M1047 553q0 -106 -86.5 -178.5t-229.5 -87.5q121 -84 158 -122q78 -81 78 -177q0 -147 -147 -226q-120 -65 -279 -65q-213 0 -389 115l69 120q155 -102 307 -102q104 0 167 40t63 105q0 90 -149 188q-1 0 -222 122q-258 141 -258 319q0 142 152 223q66 36 155 58 q-127 80 -165 116q-83 79 -83 179q0 118 116 197t290 79q188 0 342 -108l-80 -88q-146 71 -264 71q-94 0 -149.5 -36.5t-55.5 -100.5q0 -50 44 -91q40 -39 175 -124l268 -174q173 -115 173 -252zM840 539q0 84 -140 178l-141 86q-120 -26 -170.5 -67t-50.5 -113 q0 -73 57.5 -126.5t210.5 -125.5q234 28 234 168z" />
<glyph unicode="&#xa8;" horiz-adv-x="1073" d="M852 1321q0 -45 -32 -77t-77 -32q-44 0 -76 32t-32 77t32.5 77t77.5 32q44 0 75.5 -32.5t31.5 -76.5zM440 1321q0 -45 -31 -77t-75 -32q-45 0 -77 32t-32 77t32.5 77t78.5 32q43 0 73.5 -32t30.5 -77z" />
<glyph unicode="&#xa9;" horiz-adv-x="1649" d="M1563 719q0 -307 -217.5 -525.5t-522.5 -218.5q-304 0 -520.5 217.5t-216.5 522.5q0 312 216.5 527.5t531.5 215.5q298 0 513.5 -217.5t215.5 -521.5zM1456 715q0 272 -186 460.5t-453 188.5q-258 0 -442.5 -189.5t-184.5 -455.5q0 -268 185.5 -457.5t447.5 -189.5 t447.5 188.5t185.5 454.5zM1161 1071l-57 -84q-112 74 -225 74q-143 0 -231.5 -93t-88.5 -243q0 -152 92.5 -252t235.5 -100q96 0 182 51q8 4 25 14l55 -82q-128 -82 -285 -82q-191 0 -318 121q-130 123 -130 316q0 192 133.5 321t333.5 129q134 0 278 -90z" />
<glyph unicode="&#xaa;" horiz-adv-x="731" d="M647 823h-168q-14 39 -20 82q-94 -96 -199 -96q-82 0 -135 55t-53 135q0 94 80 153q68 49 221 89l94 25q-23 98 -123 98q-94 0 -176 -76l-66 80q111 90 252 90q149 0 213 -78q45 -54 45 -182v-170q0 -128 35 -205zM469 1169l-57 -14q-183 -45 -183 -145q0 -86 78 -86 q86 0 135 104q27 57 27 141z" />
<glyph unicode="&#xab;" horiz-adv-x="999" d="M905 178l-82 -74l-409 369l377 383l83 -72l-249 -309zM520 178l-82 -74l-409 369l377 383l83 -72l-249 -309z" />
<glyph unicode="&#xac;" d="M1106 223h-158v428h-878v144h1036v-572z" />
<glyph unicode="&#xad;" d="M1106 451h-1036v141h1036v-141z" />
<glyph unicode="&#x2212;" d="M1106 451h-1036v141h1036v-141z" />
<glyph unicode="&#xae;" horiz-adv-x="874" d="M813 1221q0 -157 -110 -268t-265 -111q-156 0 -266.5 111t-110.5 268q0 159 111 268.5t272 109.5q152 0 260.5 -111.5t108.5 -266.5zM739 1219q0 133 -88.5 226t-216.5 93q-123 0 -211 -93t-88 -222q0 -131 89.5 -224.5t213.5 -93.5q125 0 213 92t88 222zM614 1034 l-102 -18l-74 168h-51v-160h-98v410h145q86 0 119 -23q49 -33 49 -92q0 -82 -72 -115zM492 1319q0 45 -64 45h-41v-104h41q64 0 64 59z" />
<glyph unicode="&#xaf;" horiz-adv-x="1073" d="M866 1251h-659v133h659v-133z" />
<glyph unicode="&#x2c9;" horiz-adv-x="1073" d="M866 1251h-659v133h659v-133z" />
<glyph unicode="&#xb0;" horiz-adv-x="840" d="M717 1212q0 -121 -88 -207.5t-209 -86.5q-123 0 -210 86.5t-87 207.5q0 123 87.5 210t211.5 87q120 0 207.5 -87.5t87.5 -209.5zM602 1212q0 77 -53.5 130t-130.5 53q-75 0 -127.5 -53.5t-52.5 -129.5q0 -75 53 -127.5t129 -52.5q75 0 128.5 52.5t53.5 127.5z" />
<glyph unicode="&#xb1;" d="M1106 659h-447v-450h-141v450h-448v142h448v446h141v-446h447v-142zM1106 0h-1036v141h1036v-141z" />
<glyph unicode="&#xb2;" horiz-adv-x="834" d="M745 571h-653v80q317 301 390 387.5t73 159.5q0 60 -33.5 95.5t-89.5 35.5q-93 0 -192 -96l-90 76q123 135 303 135q125 0 205.5 -64.5t80.5 -165.5q0 -125 -207 -323l-225 -201h438v-119z" />
<glyph unicode="&#xb3;" horiz-adv-x="831" d="M733 821q0 -112 -97.5 -188t-240.5 -76q-118 0 -252 57l47 103q100 -51 191 -51q168 0 168 151q0 103 -94 135q-55 19 -193 19v96q236 13 236 162q0 106 -111 106q-88 0 -186 -67l-51 100q130 76 258 76q120 0 195 -56t75 -147q0 -119 -143 -201q198 -55 198 -219z" />
<glyph unicode="&#xb4;" horiz-adv-x="1073" d="M977 1366l-451 -176l-57 35l418 274z" />
<glyph unicode="&#xb5;" horiz-adv-x="1141" d="M1026 0h-182v170q-91 -197 -275 -197q-161 0 -254 154v-489h-184v1386h184v-567q0 -101 12 -150q18 -77 72 -129q71 -65 176 -65q122 0 199 102q70 92 70 258v551h182v-1024z" />
<glyph unicode="&#x3bc;" horiz-adv-x="1141" d="M1026 0h-182v170q-91 -197 -275 -197q-161 0 -254 154v-489h-184v1386h184v-567q0 -101 12 -150q18 -77 72 -129q71 -65 176 -65q122 0 199 102q70 92 70 258v551h182v-1024z" />
<glyph unicode="&#xb6;" horiz-adv-x="1155" d="M1096 1290h-135v-1499h-156v1499h-172v-1499h-156v887h-37q-167 0 -275 102q-112 104 -112 271q0 108 50.5 196.5t138.5 130.5q109 54 290 54h564v-142z" />
<glyph unicode="&#xb7;" horiz-adv-x="578" d="M422 514q0 -55 -39.5 -94t-95.5 -39t-94.5 38t-38.5 93q0 60 39 98.5t100 38.5q54 0 91.5 -39t37.5 -96z" />
<glyph unicode="&#x2219;" horiz-adv-x="578" d="M422 514q0 -55 -39.5 -94t-95.5 -39t-94.5 38t-38.5 93q0 60 39 98.5t100 38.5q54 0 91.5 -39t37.5 -96z" />
<glyph unicode="&#xb8;" horiz-adv-x="1073" d="M838 -266q0 -80 -74 -132.5t-184 -52.5q-74 0 -172 33l36 82q74 -26 134 -26q110 0 110 79q0 70 -100 70q-36 0 -70 -6l-18 12l88 207h88l-51 -129q22 2 49 2q74 0 119 -38t45 -101z" />
<glyph unicode="&#xb9;" horiz-adv-x="840" d="M528 573h-172v727l-168 -65l-43 98l269 99h114v-859z" />
<glyph unicode="&#xba;" horiz-adv-x="809" d="M748 1139q0 -143 -97 -236.5t-245 -93.5q-151 0 -247 92t-96 236q0 142 96 231.5t249 89.5q144 0 242 -92t98 -227zM580 1141q0 100 -48 157.5t-129 57.5q-78 0 -125 -58.5t-47 -160.5q0 -106 47.5 -166t129.5 -60q78 0 125 61.5t47 168.5z" />
<glyph unicode="&#xbb;" horiz-adv-x="999" d="M973 485l-375 -381l-86 70l252 311l-281 295l80 76zM590 485l-377 -381l-86 70l252 311l-281 295l80 76z" />
<glyph unicode="&#xbc;" horiz-adv-x="1704" d="M1536 236h-117v-236h-145v236h-420v71l457 551h108v-514h117v-108zM1356 1432l-922 -1432h-158l926 1432h154zM506 573h-170v727l-168 -65l-45 98l268 99h115v-859zM1274 344v338l-258 -338h258z" />
<glyph unicode="&#xbd;" horiz-adv-x="1733" d="M1571 0h-653v80q321 306 390.5 388.5t69.5 158.5q0 58 -33.5 94.5t-89.5 36.5q-93 0 -192 -96l-90 75q126 135 303 135q126 0 207.5 -64.5t81.5 -164.5q0 -115 -167 -284q-4 -4 -268 -240h441v-119zM1284 1432l-922 -1432h-157l925 1432h154zM436 573h-170v727l-170 -65 l-43 98l269 99h114v-859z" />
<glyph unicode="&#xbe;" horiz-adv-x="1704" d="M1608 236h-115v-236h-147v236h-420v71l456 551h111v-514h115v-108zM1427 1432l-921 -1432h-158l924 1432h155zM692 821q0 -112 -97.5 -188t-240.5 -76q-118 0 -252 57l48 103q99 -51 190 -51q168 0 168 151q0 103 -94 135q-55 19 -193 19v96q238 14 238 162 q0 106 -113 106q-88 0 -186 -67l-51 100q130 76 258 76q120 0 195 -56t75 -147q0 -119 -143 -201q198 -55 198 -219zM1346 344v338l-259 -338h259z" />
<glyph unicode="&#xbf;" horiz-adv-x="963" d="M666 905q0 -56 -39.5 -94.5t-96.5 -38.5q-55 0 -94 38t-39 93q0 60 39.5 98.5t100.5 38.5q53 0 91 -39t38 -96zM854 -295q-157 -186 -387 -186q-167 0 -272 76q-119 86 -119 245q0 126 76 242q13 20 167 227q85 114 112.5 170.5t35.5 134.5h151v-32q0 -91 -28 -161 t-109 -179q-110 -150 -147 -225q-39 -78 -39 -154q0 -93 55.5 -148t149.5 -55q139 0 262 137z" />
<glyph unicode="&#xc0;" horiz-adv-x="1253" d="M799 1599l-60 -43l-442 177l90 135zM1255 0h-217l-145 420h-559l-156 -420h-178l588 1434h131zM844 563l-219 617l-238 -617h457z" />
<glyph unicode="&#xc1;" horiz-adv-x="1253" d="M1001 1735l-450 -176l-57 34l417 275zM1255 0h-217l-145 420h-559l-156 -420h-178l588 1434h131zM844 563l-219 617l-238 -617h457z" />
<glyph unicode="&#xc2;" horiz-adv-x="1253" d="M954 1550h-102l-215 199l-213 -199h-100l254 344h122zM1255 0h-217l-145 420h-559l-156 -420h-178l588 1434h131zM844 563l-219 617l-238 -617h457z" />
<glyph unicode="&#xc3;" horiz-adv-x="1253" d="M993 1827q-14 -81 -32 -115q-63 -117 -195 -117q-46 0 -145 41q-105 43 -127 43q-73 0 -107 -84h-84q22 79 43 115q59 100 176 100q50 0 152 -43q97 -41 121 -41q82 0 114 101h84zM1255 0h-217l-145 420h-559l-156 -420h-178l588 1434h131zM844 563l-219 617l-238 -617 h457z" />
<glyph unicode="&#xc4;" horiz-adv-x="1253" d="M946 1706q0 -45 -32 -77t-76 -32q-45 0 -77 32t-32 77t32.5 77t78.5 32q43 0 74.5 -32.5t31.5 -76.5zM535 1706q0 -45 -31.5 -77t-75.5 -32q-45 0 -77 32t-32 77t32.5 77t78.5 32q43 0 74 -32t31 -77zM1255 0h-217l-145 420h-559l-156 -420h-178l588 1434h131zM844 563 l-219 617l-238 -617h457z" />
<glyph unicode="&#xc5;" horiz-adv-x="1253" d="M850 1759q0 -87 -61.5 -148t-149.5 -61q-86 0 -147.5 61.5t-61.5 147.5q0 89 61 150t150 61q86 0 147.5 -62.5t61.5 -148.5zM1255 0h-217l-145 420h-559l-156 -420h-178l588 1434h131zM754 1759q0 48 -34 82.5t-81 34.5q-46 0 -79.5 -34.5t-33.5 -82.5t34 -82.5t81 -34.5 q46 0 79.5 35t33.5 82zM844 563l-219 617l-238 -617h457z" />
<glyph unicode="&#xc6;" horiz-adv-x="1653" d="M1604 0h-793v422h-434l-232 -422h-190l829 1434h732v-144h-504v-463h495v-145h-495v-539h592v-143zM811 565v688l-358 -688h358z" />
<glyph unicode="&#xc7;" horiz-adv-x="1397" d="M1335 1315l-82 -125q-183 125 -379 125q-248 0 -402.5 -163t-154.5 -427t161.5 -435t410.5 -171q192 0 352 104l76 -119q-205 -132 -475 -129l-43 -108q18 2 43 2q78 0 126 -39.5t48 -103.5q0 -88 -76.5 -143.5t-196.5 -55.5q-90 0 -188 49l45 78q74 -29 141 -29 q119 0 119 82q0 72 -108 72q-35 0 -76 -10q-2 1 -21 14l86 199q-220 32 -364 141q-279 212 -279 582q0 322 224 537.5t561 215.5q239 0 452 -143z" />
<glyph unicode="&#xc8;" horiz-adv-x="1022" d="M662 1593l-60 -43l-442 176l90 136zM973 0h-801v1434h713v-144h-514v-465h503v-145h-503v-537h602v-143z" />
<glyph unicode="&#xc9;" horiz-adv-x="1022" d="M899 1735l-450 -176l-58 34l418 275zM973 0h-801v1434h713v-144h-514v-465h503v-145h-503v-537h602v-143z" />
<glyph unicode="&#xca;" horiz-adv-x="1022" d="M823 1550h-102l-215 199l-213 -199h-100l253 344h123zM973 0h-801v1434h713v-144h-514v-465h503v-145h-503v-537h602v-143z" />
<glyph unicode="&#xcb;" horiz-adv-x="1022" d="M831 1706q0 -45 -32 -77t-76 -32q-45 0 -77 32t-32 77t32.5 77t78.5 32q43 0 74.5 -32.5t31.5 -76.5zM420 1706q0 -45 -31 -77t-76 -32q-44 0 -76 32t-32 77t32 77t78 32q43 0 74 -32t31 -77zM973 0h-801v1434h713v-144h-514v-465h503v-145h-503v-537h602v-143z" />
<glyph unicode="&#xcc;" horiz-adv-x="543" d="M424 1606l-59 -43l-443 176l90 135zM371 0h-199v1434h199v-1434z" />
<glyph unicode="&#xcd;" horiz-adv-x="543" d="M639 1735l-451 -176l-57 34l418 275zM371 0h-199v1434h199v-1434z" />
<glyph unicode="&#xce;" horiz-adv-x="543" d="M590 1550h-103l-215 199l-213 -199h-100l254 344h123zM371 0h-199v1434h199v-1434z" />
<glyph unicode="&#xcf;" horiz-adv-x="543" d="M586 1706q0 -45 -32 -77t-77 -32q-44 0 -76 32t-32 77t32 77t78 32q43 0 75 -32.5t32 -76.5zM174 1706q0 -45 -31 -77t-75 -32q-45 0 -77 32t-32 77t32.5 77t78.5 32q43 0 73.5 -32t30.5 -77zM371 0h-199v1434h199v-1434z" />
<glyph unicode="&#xd0;" horiz-adv-x="1509" d="M1411 754q0 -474 -375 -662q-184 -92 -520 -92h-346v702h-236v111h236v621h362q256 0 394.5 -31.5t242.5 -114.5q242 -191 242 -534zM1194 737q0 439 -348 529q-95 24 -316 24h-161v-477h309v-111h-309v-559h147q196 0 299 24.5t186 90.5q193 153 193 479z" />
<glyph unicode="&#xd1;" horiz-adv-x="1497" d="M1100 1835q-15 -81 -33 -115q-63 -116 -195 -116q-46 0 -145 41q-104 43 -127 43q-72 0 -106 -84h-84q21 78 43 114q59 101 176 101q49 0 151 -43q97 -41 121 -41q82 0 115 100h84zM1325 0h-139l-852 1116v-1116h-162v1434h127l862 -1123v1123h164v-1434z" />
<glyph unicode="&#xd2;" horiz-adv-x="1630" d="M977 1599l-59 -43l-443 177l90 135zM1532 735q0 -325 -194 -539q-201 -221 -523 -221q-321 0 -522 221q-195 214 -195 537q0 318 204.5 521.5t520.5 203.5q302 0 505.5 -207t203.5 -516zM1313 713q0 272 -138 437t-368 165q-234 0 -369 -188q-121 -167 -121 -410 q0 -248 123 -414q136 -184 375 -184q222 0 360 164t138 430z" />
<glyph unicode="&#xd3;" horiz-adv-x="1630" d="M1169 1729l-450 -177l-57 35l417 275zM1532 735q0 -325 -194 -539q-201 -221 -523 -221q-321 0 -522 221q-195 214 -195 537q0 318 204.5 521.5t520.5 203.5q302 0 505.5 -207t203.5 -516zM1313 713q0 272 -138 437t-368 165q-234 0 -369 -188q-121 -167 -121 -410 q0 -248 123 -414q136 -184 375 -184q222 0 360 164t138 430z" />
<glyph unicode="&#xd4;" horiz-adv-x="1630" d="M1120 1550h-102l-215 199l-213 -199h-101l254 344h123zM1532 735q0 -325 -194 -539q-201 -221 -523 -221q-321 0 -522 221q-195 214 -195 537q0 318 204.5 521.5t520.5 203.5q302 0 505.5 -207t203.5 -516zM1313 713q0 272 -138 437t-368 165q-234 0 -369 -188 q-121 -167 -121 -410q0 -248 123 -414q136 -184 375 -184q222 0 360 164t138 430z" />
<glyph unicode="&#xd5;" horiz-adv-x="1630" d="M1147 1833q-15 -81 -33 -115q-63 -116 -194 -116q-47 0 -146 40q-104 44 -127 44q-72 0 -106 -84h-84q21 78 43 114q59 101 176 101q50 0 151 -43q97 -41 121 -41q82 0 115 100h84zM1532 735q0 -325 -194 -539q-201 -221 -523 -221q-321 0 -522 221q-195 214 -195 537 q0 318 204.5 521.5t520.5 203.5q302 0 505.5 -207t203.5 -516zM1313 713q0 272 -138 437t-368 165q-234 0 -369 -188q-121 -167 -121 -410q0 -248 123 -414q136 -184 375 -184q222 0 360 164t138 430z" />
<glyph unicode="&#xd6;" horiz-adv-x="1630" d="M1135 1706q0 -45 -32 -77t-77 -32q-44 0 -76 32t-32 77t32 77t78 32q43 0 75 -32.5t32 -76.5zM723 1706q0 -45 -31 -77t-76 -32q-44 0 -76 32t-32 77t32.5 77t77.5 32q43 0 74 -32t31 -77zM1532 735q0 -325 -194 -539q-201 -221 -523 -221q-321 0 -522 221 q-195 214 -195 537q0 318 204.5 521.5t520.5 203.5q302 0 505.5 -207t203.5 -516zM1313 713q0 272 -138 437t-368 165q-234 0 -369 -188q-121 -167 -121 -410q0 -248 123 -414q136 -184 375 -184q222 0 360 164t138 430z" />
<glyph unicode="&#xd7;" d="M1006 205l-101 -99l-319 318l-316 -315l-100 96l319 319l-319 316l100 100l316 -319l317 319l101 -100l-318 -316z" />
<glyph unicode="&#xd8;" horiz-adv-x="1630" d="M1581 1370l-195 -188q146 -183 146 -447q0 -321 -195 -536q-202 -224 -520 -224q-292 0 -489 183l-189 -178l-92 96l193 184q-142 203 -142 477q0 312 205.5 516.5t517.5 204.5q273 0 473 -174l193 182zM1161 1163q-140 152 -348 152q-242 0 -377 -184 q-121 -164 -121 -414q0 -177 74 -328zM1313 719q0 201 -76 334l-774 -777q129 -157 354 -157q235 0 372 188q124 168 124 412z" />
<glyph unicode="&#xd9;" horiz-adv-x="1409" d="M819 1606l-59 -43l-443 176l91 135zM1260 621q0 -195 -22.5 -287t-90.5 -174q-152 -185 -449 -185q-349 0 -483 246q-45 83 -57 203q-6 58 -6 213v797h198v-801q0 -145 9 -204q15 -113 71 -187q92 -123 279 -123q245 0 329 198q37 88 37 320v797h185v-813z" />
<glyph unicode="&#xda;" horiz-adv-x="1409" d="M1102 1735l-451 -176l-57 34l418 275zM1260 621q0 -195 -22.5 -287t-90.5 -174q-152 -185 -449 -185q-349 0 -483 246q-45 83 -57 203q-6 58 -6 213v797h198v-801q0 -145 9 -204q15 -113 71 -187q92 -123 279 -123q245 0 329 198q37 88 37 320v797h185v-813z" />
<glyph unicode="&#xdb;" horiz-adv-x="1409" d="M1010 1550h-103l-215 199l-213 -199h-100l254 344h123zM1260 621q0 -195 -22.5 -287t-90.5 -174q-152 -185 -449 -185q-349 0 -483 246q-45 83 -57 203q-6 58 -6 213v797h198v-801q0 -145 9 -204q15 -113 71 -187q92 -123 279 -123q245 0 329 198q37 88 37 320v797h185 v-813z" />
<glyph unicode="&#xdc;" horiz-adv-x="1409" d="M1030 1706q0 -45 -32 -77t-76 -32q-45 0 -77 32t-32 77t32.5 77t78.5 32q43 0 74.5 -32.5t31.5 -76.5zM618 1706q0 -45 -31 -77t-75 -32q-45 0 -77 32t-32 77t32.5 77t78.5 32q43 0 73.5 -32t30.5 -77zM1260 621q0 -195 -22.5 -287t-90.5 -174q-152 -185 -449 -185 q-349 0 -483 246q-45 83 -57 203q-6 58 -6 213v797h198v-801q0 -145 9 -204q15 -113 71 -187q92 -123 279 -123q245 0 329 198q37 88 37 320v797h185v-813z" />
<glyph unicode="&#xdd;" horiz-adv-x="1104" d="M958 1741l-450 -176l-57 34l417 275zM1112 1425l-487 -804v-621h-199v621l-432 790l203 41l346 -711l391 711z" />
<glyph unicode="&#xde;" horiz-adv-x="1098" d="M1022 770q0 -233 -175 -358q-152 -109 -392 -109h-84v-303h-199v1434h199v-275h86q146 0 207 -8q116 -14 194 -66q164 -107 164 -315zM813 750q0 180 -147 245q-56 25 -222 25h-73v-586h75q188 0 273 78q94 86 94 238z" />
<glyph unicode="&#xdf;" horiz-adv-x="1270" d="M1194 272q0 -130 -102.5 -213.5t-264.5 -83.5q-186 0 -309 129l90 99q113 -99 217 -99q80 0 131.5 41.5t51.5 106.5q0 91 -144 197q-148 109 -191.5 167.5t-43.5 147.5q0 57 13 96t69 146q43 82 43 165q0 91 -54 146t-143 55q-126 0 -169 -107q-26 -66 -26 -218v-1047 h-184v1038q0 125 11 185q18 100 75 166q99 112 297 112q168 0 270.5 -86.5t102.5 -226.5q0 -89 -72 -227q-51 -100 -51 -158q0 -54 29.5 -93.5t122.5 -111.5q118 -93 157 -138q74 -86 74 -188z" />
<glyph unicode="&#xe0;" horiz-adv-x="1030" d="M621 1214l-60 -43l-442 177l90 135zM930 0h-199q-20 55 -23 68q-6 27 -8 86q-131 -179 -331 -179q-124 0 -204 80q-83 81 -83 209q0 194 211 301q102 52 235 88q100 27 172 39q-25 238 -221 238q-128 0 -260 -111l-72 92q150 138 365 138q218 0 309 -129q37 -53 49 -103 q15 -61 15 -192v-297q0 -217 45 -328zM707 471l-2 100q-6 0 -123 -26q-310 -69 -310 -256q0 -78 44 -124t114 -46q96 0 170 66q61 54 82 124q26 89 25 162z" />
<glyph unicode="&#xe1;" horiz-adv-x="1030" d="M874 1350l-450 -176l-57 34l417 275zM930 0h-199q-20 55 -23 68q-6 27 -8 86q-131 -179 -331 -179q-124 0 -204 80q-83 81 -83 209q0 194 211 301q102 52 235 88q100 27 172 39q-25 238 -221 238q-128 0 -260 -111l-72 92q150 138 365 138q218 0 309 -129q37 -53 49 -103 q15 -61 15 -192v-297q0 -217 45 -328zM707 471l-2 100q-6 0 -123 -26q-310 -69 -310 -256q0 -78 44 -124t114 -46q96 0 170 66q61 54 82 124q26 89 25 162z" />
<glyph unicode="&#xe2;" horiz-adv-x="1030" d="M819 1141h-102l-215 198l-213 -198h-101l254 344h123zM930 0h-199q-20 55 -23 68q-6 27 -8 86q-131 -179 -331 -179q-124 0 -204 80q-83 81 -83 209q0 194 211 301q102 52 235 88q100 27 172 39q-25 238 -221 238q-128 0 -260 -111l-72 92q150 138 365 138 q218 0 309 -129q37 -53 49 -103q15 -61 15 -192v-297q0 -217 45 -328zM707 471l-2 100q-6 0 -123 -26q-310 -69 -310 -256q0 -78 44 -124t114 -46q96 0 170 66q61 54 82 124q26 89 25 162z" />
<glyph unicode="&#xe3;" horiz-adv-x="1030" d="M846 1421q-15 -80 -33 -114q-63 -117 -195 -117q-46 0 -145 41q-104 43 -127 43q-72 0 -106 -84h-84q21 78 43 115q59 100 176 100q49 0 151 -43q97 -41 121 -41q82 0 115 100h84zM930 0h-199q-20 55 -23 68q-6 27 -8 86q-131 -179 -331 -179q-124 0 -204 80 q-83 81 -83 209q0 194 211 301q102 52 235 88q100 27 172 39q-25 238 -221 238q-128 0 -260 -111l-72 92q150 138 365 138q218 0 309 -129q37 -53 49 -103q15 -61 15 -192v-297q0 -217 45 -328zM707 471l-2 100q-6 0 -123 -26q-310 -69 -310 -256q0 -78 44 -124t114 -46 q96 0 170 66q61 54 82 124q26 89 25 162z" />
<glyph unicode="&#xe4;" horiz-adv-x="1030" d="M817 1305q0 -45 -32 -77t-76 -32q-45 0 -77 32t-32 77q0 44 32.5 76t78.5 32q43 0 74.5 -32t31.5 -76zM406 1305q0 -45 -31.5 -77t-75.5 -32q-45 0 -77 32t-32 77q0 44 32.5 76t78.5 32q43 0 74 -32t31 -76zM930 0h-199q-20 55 -23 68q-6 27 -8 86q-131 -179 -331 -179 q-124 0 -204 80q-83 81 -83 209q0 194 211 301q102 52 235 88q100 27 172 39q-25 238 -221 238q-128 0 -260 -111l-72 92q150 138 365 138q218 0 309 -129q37 -53 49 -103q15 -61 15 -192v-297q0 -217 45 -328zM707 471l-2 100q-6 0 -123 -26q-310 -69 -310 -256 q0 -78 44 -124t114 -46q96 0 170 66q61 54 82 124q26 89 25 162z" />
<glyph unicode="&#xe5;" horiz-adv-x="1030" d="M723 1350q0 -88 -61.5 -148.5t-149.5 -60.5q-86 0 -147.5 61.5t-61.5 147.5q0 89 61 150t150 61q86 0 147.5 -62.5t61.5 -148.5zM930 0h-199q-20 55 -23 68q-6 27 -8 86q-131 -179 -331 -179q-124 0 -204 80q-83 81 -83 209q0 194 211 301q102 52 235 88q100 27 172 39 q-25 238 -221 238q-128 0 -260 -111l-72 92q150 138 365 138q218 0 309 -129q37 -53 49 -103q15 -61 15 -192v-297q0 -217 45 -328zM627 1350q0 47 -34 81.5t-81 34.5q-46 0 -79.5 -34.5t-33.5 -81.5q0 -48 34 -82.5t81 -34.5q46 0 79.5 34.5t33.5 82.5zM707 471l-2 100 q-6 0 -123 -26q-310 -69 -310 -256q0 -78 44 -124t114 -46q96 0 170 66q61 54 82 124q26 89 25 162z" />
<glyph unicode="&#xe6;" horiz-adv-x="1661" d="M1587 569q0 -37 -2 -69h-688q2 -180 96.5 -288t251.5 -108q143 0 268 89l54 -99q-180 -119 -350 -119q-338 0 -451 258q-170 -258 -397 -258q-124 0 -204 80q-83 81 -83 209q0 194 211 301q102 52 235 88q100 27 172 39q-25 238 -221 238q-128 0 -260 -111l-72 92 q150 138 365 138q234 0 328 -146q136 146 334 146q199 0 311 -145q102 -132 102 -335zM1409 616q-3 304 -233 304q-117 0 -190.5 -81t-84.5 -223h508zM707 438l-2 133q-6 0 -123 -26q-310 -69 -310 -256q0 -78 44 -124t114 -46q97 0 171 66q63 55 81 124q25 97 25 129z" />
<glyph unicode="&#xe7;" horiz-adv-x="981" d="M934 84q-144 -110 -334 -107l-43 -106q23 4 51 4q73 0 117.5 -38t44.5 -101q0 -80 -73.5 -133.5t-182.5 -53.5q-78 0 -172 35l37 80q80 -26 133 -26q109 0 109 79q0 72 -99 72q-22 0 -71 -6l-19 12l80 187q-155 29 -258 122q-172 156 -172 408q0 234 152 385.5t387 151.5 q162 0 288 -84l-63 -103q-112 58 -209 58q-161 0 -259.5 -109t-98.5 -287q0 -192 96.5 -305t261.5 -113q128 0 246 78z" />
<glyph unicode="&#xe8;" horiz-adv-x="1044" d="M686 1214l-59 -43l-443 177l90 135zM971 500h-695q5 -180 101.5 -288t251.5 -108q136 0 268 89l53 -99q-185 -119 -362 -119q-218 0 -357 142q-149 153 -149 409q0 229 133.5 376t345.5 147q287 0 371 -254q36 -110 39 -295zM793 616q0 129 -50 208q-61 96 -184 96 q-117 0 -191.5 -81.5t-84.5 -222.5h510z" />
<glyph unicode="&#xe9;" horiz-adv-x="1044" d="M905 1350l-450 -176l-58 34l418 275zM971 500h-695q5 -180 101.5 -288t251.5 -108q136 0 268 89l53 -99q-185 -119 -362 -119q-218 0 -357 142q-149 153 -149 409q0 229 133.5 376t345.5 147q287 0 371 -254q36 -110 39 -295zM793 616q0 129 -50 208q-61 96 -184 96 q-117 0 -191.5 -81.5t-84.5 -222.5h510z" />
<glyph unicode="&#xea;" horiz-adv-x="1044" d="M862 1141h-102l-215 198l-213 -198h-101l254 344h123zM971 500h-695q5 -180 101.5 -288t251.5 -108q136 0 268 89l53 -99q-185 -119 -362 -119q-218 0 -357 142q-149 153 -149 409q0 229 133.5 376t345.5 147q287 0 371 -254q36 -110 39 -295zM793 616q0 129 -50 208 q-61 96 -184 96q-117 0 -191.5 -81.5t-84.5 -222.5h510z" />
<glyph unicode="&#xeb;" horiz-adv-x="1044" d="M852 1305q0 -45 -32 -77t-77 -32q-44 0 -76 32t-32 77q0 44 32.5 76t77.5 32q44 0 75.5 -32t31.5 -76zM440 1305q0 -45 -31 -77t-75 -32q-45 0 -77 32t-32 77q0 44 32.5 76t78.5 32q43 0 73.5 -32t30.5 -76zM971 500h-695q5 -180 101.5 -288t251.5 -108q136 0 268 89 l53 -99q-185 -119 -362 -119q-218 0 -357 142q-149 153 -149 409q0 229 133.5 376t345.5 147q287 0 371 -254q36 -110 39 -295zM793 616q0 129 -50 208q-61 96 -184 96q-117 0 -191.5 -81.5t-84.5 -222.5h510z" />
<glyph unicode="&#xec;" horiz-adv-x="487" d="M410 1204l-60 -43l-442 176l90 136zM336 0h-184v1024h184v-1024z" />
<glyph unicode="&#xed;" horiz-adv-x="487" d="M592 1339l-451 -176l-57 35l418 275zM336 0h-184v1024h184v-1024z" />
<glyph unicode="&#xee;" horiz-adv-x="487" d="M506 1141h-103l-163 198l-162 -198h-101l203 344h123zM336 0h-184v1024h184v-1024z" />
<glyph unicode="&#xef;" horiz-adv-x="487" d="M528 1305q0 -45 -32 -77t-76 -32q-45 0 -77 32t-32 77q0 44 32.5 76t78.5 32q43 0 74.5 -32t31.5 -76zM178 1305q0 -45 -31 -77t-75 -32q-45 0 -77 32t-32 77q0 44 32.5 76t78.5 32q43 0 73.5 -32t30.5 -76zM336 0h-184v1024h184v-1024z" />
<glyph unicode="&#xf0;" horiz-adv-x="1194" d="M1098 561q0 -236 -94 -375q-144 -211 -406 -211q-223 0 -363.5 151.5t-140.5 391.5q0 228 135 377q139 154 363 154q117 0 229 -54q-81 185 -248 303l-245 -112l-35 82l196 86q-35 19 -170 80l52 106q175 -48 291 -125l210 98l33 -81l-157 -74q165 -117 257.5 -327 t92.5 -470zM901 520q0 186 -82.5 293t-226.5 107q-139 0 -220 -108t-81 -294q0 -197 81 -305.5t228 -108.5q141 0 221 110.5t80 305.5z" />
<glyph unicode="&#xf1;" horiz-adv-x="1233" d="M961 1421q-15 -80 -33 -114q-63 -117 -195 -117q-46 0 -145 41q-104 43 -127 43q-72 0 -107 -84h-84q22 78 43 115q59 100 176 100q50 0 152 -43q97 -41 121 -41q82 0 115 100h84zM1067 0h-182v573q0 166 -37 234q-58 106 -203 106q-186 0 -254 -151q-29 -65 -29 -223 v-539h-184v1024h184v-129q151 154 355 154q256 0 325 -205q25 -72 25 -271v-573z" />
<glyph unicode="&#xf2;" horiz-adv-x="1194" d="M743 1214l-59 -43l-442 177l90 135zM1098 520q0 -238 -140.5 -391.5t-359.5 -153.5q-221 0 -362.5 152t-141.5 391q0 235 142 383t366 148q212 0 354 -152t142 -377zM901 520q0 186 -82.5 293t-226.5 107q-139 0 -220 -108t-81 -294q0 -197 81 -305.5t228 -108.5 q141 0 221 110.5t80 305.5z" />
<glyph unicode="&#xf3;" horiz-adv-x="1194" d="M977 1350l-451 -176l-57 34l418 275zM1098 520q0 -238 -140.5 -391.5t-359.5 -153.5q-221 0 -362.5 152t-141.5 391q0 235 142 383t366 148q212 0 354 -152t142 -377zM901 520q0 186 -82.5 293t-226.5 107q-139 0 -220 -108t-81 -294q0 -197 81 -305.5t228 -108.5 q141 0 221 110.5t80 305.5z" />
<glyph unicode="&#xf4;" horiz-adv-x="1194" d="M895 1141h-102l-215 198l-213 -198h-101l254 344h123zM1098 520q0 -238 -140.5 -391.5t-359.5 -153.5q-221 0 -362.5 152t-141.5 391q0 235 142 383t366 148q212 0 354 -152t142 -377zM901 520q0 186 -82.5 293t-226.5 107q-139 0 -220 -108t-81 -294q0 -197 81 -305.5 t228 -108.5q141 0 221 110.5t80 305.5z" />
<glyph unicode="&#xf5;" horiz-adv-x="1194" d="M934 1421q-14 -80 -33 -114q-63 -117 -194 -117q-47 0 -146 41q-104 43 -127 43q-72 0 -106 -84h-84q21 78 43 115q59 100 176 100q50 0 151 -43q97 -41 121 -41q82 0 115 100h84zM1098 520q0 -238 -140.5 -391.5t-359.5 -153.5q-221 0 -362.5 152t-141.5 391 q0 235 142 383t366 148q212 0 354 -152t142 -377zM901 520q0 186 -82.5 293t-226.5 107q-139 0 -220 -108t-81 -294q0 -197 81 -305.5t228 -108.5q141 0 221 110.5t80 305.5z" />
<glyph unicode="&#xf6;" horiz-adv-x="1194" d="M911 1305q0 -45 -32 -77t-76 -32q-45 0 -77 32t-32 77q0 44 32.5 76t78.5 32q43 0 74.5 -32t31.5 -76zM500 1305q0 -45 -31 -77t-76 -32q-44 0 -76 32t-32 77q0 44 32 76t78 32q43 0 74 -32t31 -76zM1098 520q0 -238 -140.5 -391.5t-359.5 -153.5q-221 0 -362.5 152 t-141.5 391q0 235 142 383t366 148q212 0 354 -152t142 -377zM901 520q0 186 -82.5 293t-226.5 107q-139 0 -220 -108t-81 -294q0 -197 81 -305.5t228 -108.5q141 0 221 110.5t80 305.5z" />
<glyph unicode="&#xf7;" d="M707 872q0 -49 -33.5 -83.5t-83.5 -34.5q-51 0 -85 34t-34 84t34.5 83.5t84.5 33.5q48 0 82.5 -34t34.5 -83zM1106 451h-1036v141h1036v-141zM707 166q0 -50 -33.5 -84.5t-83.5 -34.5q-51 0 -85 34t-34 85q0 50 35.5 83.5t85.5 33.5q47 0 81 -35t34 -82z" />
<glyph unicode="&#xf8;" horiz-adv-x="1194" d="M1194 944l-168 -141q72 -130 72 -281q0 -240 -140 -393.5t-360 -153.5q-201 0 -369 154l-168 -143l-77 96l176 149q-66 139 -66 277q0 233 133 383q138 158 367 158q205 0 358 -148l164 139zM823 807q-86 113 -223 113q-147 0 -228 -107t-81 -301q0 -79 16 -164zM903 522 q0 81 -24 172l-517 -467q71 -123 232 -123q162 0 243 135q66 110 66 283z" />
<glyph unicode="&#xf9;" horiz-adv-x="1233" d="M729 1214l-59 -43l-443 177l90 135zM1055 0h-183v129q-153 -154 -354 -154q-259 0 -328 205q-24 73 -24 271v573h184v-573q0 -166 37 -234q58 -106 203 -106q183 0 252 153q30 69 30 225v535h183v-1024z" />
<glyph unicode="&#xfa;" horiz-adv-x="1233" d="M977 1350l-451 -176l-57 34l418 275zM1055 0h-183v129q-153 -154 -354 -154q-259 0 -328 205q-24 73 -24 271v573h184v-573q0 -166 37 -234q58 -106 203 -106q183 0 252 153q30 69 30 225v535h183v-1024z" />
<glyph unicode="&#xfb;" horiz-adv-x="1233" d="M926 1141h-103l-215 198l-213 -198h-100l254 344h123zM1055 0h-183v129q-153 -154 -354 -154q-259 0 -328 205q-24 73 -24 271v573h184v-573q0 -166 37 -234q58 -106 203 -106q183 0 252 153q30 69 30 225v535h183v-1024z" />
<glyph unicode="&#xfc;" horiz-adv-x="1233" d="M905 1305q0 -45 -32 -77t-76 -32q-45 0 -77 32t-32 77q0 44 32.5 76t78.5 32q43 0 74.5 -32t31.5 -76zM494 1305q0 -45 -31.5 -77t-75.5 -32t-76 32t-32 77q0 44 32 76t78 32q43 0 74 -32t31 -76zM1055 0h-183v129q-153 -154 -354 -154q-259 0 -328 205q-24 73 -24 271 v573h184v-573q0 -166 37 -234q58 -106 203 -106q183 0 252 153q30 69 30 225v535h183v-1024z" />
<glyph unicode="&#xfd;" horiz-adv-x="1040" d="M930 1350l-451 -176l-57 34l418 275zM1010 1004l-512 -1156q-87 -194 -167 -266q-105 -94 -294 -94h-43v137h45q106 0 159 28t101 107q30 51 143 297l-415 934l180 49l315 -792l336 792z" />
<glyph unicode="&#xfe;" horiz-adv-x="1270" d="M1176 535q0 -243 -140 -401.5t-354 -158.5q-186 0 -326 162v-649h-178v2015h178v-635q131 181 363 181q204 0 330.5 -142.5t126.5 -371.5zM979 526q0 183 -81.5 288.5t-221.5 105.5q-145 0 -232.5 -115.5t-87.5 -306.5q0 -184 86 -289t238 -105q120 0 188 78 q111 126 111 344z" />
<glyph unicode="&#xff;" horiz-adv-x="1040" d="M846 1305q0 -45 -32 -77t-77 -32q-44 0 -76 32t-32 77q0 44 32 76t78 32q43 0 75 -32t32 -76zM434 1305q0 -45 -31 -77t-75 -32q-45 0 -77 32t-32 77q0 44 32.5 76t78.5 32q43 0 73.5 -32t30.5 -76zM1010 1004l-512 -1156q-87 -194 -167 -266q-105 -94 -294 -94h-43v137 h45q106 0 159 28t101 107q30 51 143 297l-415 934l180 49l315 -792l336 792z" />
<glyph unicode="&#x152;" horiz-adv-x="1950" d="M1901 0h-783q-194 -25 -291 -25q-315 0 -503 183q-226 218 -226 571q0 327 206.5 529t541.5 202q101 0 272 -26h697v-144h-508v-465h495v-145h-495v-537h594v-143zM1108 176v1094q-126 45 -264 45q-246 0 -386.5 -157t-140.5 -431q0 -278 143 -443t384 -165q149 0 264 57 z" />
<glyph unicode="&#x153;" horiz-adv-x="1864" d="M1790 604q0 -17 -1 -52t-1 -52h-688q6 -185 99 -290.5t251 -105.5q140 0 268 93l56 -101q-168 -121 -373 -121q-268 0 -395 232q-137 -232 -396 -232q-232 0 -376 159q-140 153 -140 388q0 228 143.5 377.5t368.5 149.5q253 0 400 -224q118 224 378 224q202 0 312 -146 q94 -123 94 -299zM1614 616q-9 304 -232 304q-250 0 -278 -304h510zM901 518q0 190 -80 296t-223 106q-140 0 -223.5 -109.5t-83.5 -294.5q0 -193 83 -302.5t226 -109.5t222 109t79 305z" />
<glyph unicode="&#x178;" horiz-adv-x="1104" d="M877 1706q0 -45 -32 -77t-77 -32t-77 32t-32 77t32.5 77t78.5 32q43 0 75 -32.5t32 -76.5zM465 1706q0 -45 -31 -77t-76 -32q-44 0 -76 32t-32 77t32.5 77t77.5 32q43 0 74 -32t31 -77zM1112 1425l-487 -804v-621h-199v621l-432 790l203 41l346 -711l391 711z" />
<glyph unicode="&#x2c6;" horiz-adv-x="1073" d="M854 1157h-102l-215 199l-213 -199h-101l254 344h123z" />
<glyph unicode="&#x2dc;" horiz-adv-x="1073" d="M881 1438q-15 -81 -33 -115q-63 -117 -195 -117q-46 0 -145 41q-104 43 -127 43q-72 0 -107 -84h-84q22 78 43 115q59 100 177 100q49 0 151 -43q97 -41 121 -41q82 0 115 101h84z" />
<glyph unicode="&#x2000;" horiz-adv-x="985" />
<glyph unicode="&#x2001;" horiz-adv-x="1970" />
<glyph unicode="&#x2002;" horiz-adv-x="985" />
<glyph unicode="&#x2003;" horiz-adv-x="1970" />
<glyph unicode="&#x2004;" horiz-adv-x="656" />
<glyph unicode="&#x2005;" horiz-adv-x="492" />
<glyph unicode="&#x2006;" horiz-adv-x="328" />
<glyph unicode="&#x2007;" horiz-adv-x="328" />
<glyph unicode="&#x2008;" horiz-adv-x="246" />
<glyph unicode="&#x2009;" horiz-adv-x="394" />
<glyph unicode="&#x200a;" horiz-adv-x="109" />
<glyph unicode="&#x2010;" horiz-adv-x="651" d="M580 410h-508v153h508v-153z" />
<glyph unicode="&#x2011;" horiz-adv-x="651" d="M580 410h-508v153h508v-153z" />
<glyph unicode="&#x2012;" horiz-adv-x="651" d="M580 410h-508v153h508v-153z" />
<glyph unicode="&#x2013;" horiz-adv-x="1155" d="M1157 416h-1157v141h1157v-141z" />
<glyph unicode="&#x2014;" horiz-adv-x="1655" d="M1579 416h-1499v141h1499v-141z" />
<glyph unicode="&#x2018;" horiz-adv-x="655" d="M535 1462l-148 -315q1 -14 21 -52t20 -75q0 -54 -41.5 -90.5t-93.5 -36.5q-137 0 -137 139q0 65 69 166l219 318z" />
<glyph unicode="&#x2019;" horiz-adv-x="655" d="M504 1376q0 -65 -70 -166l-219 -317l-90 53l147 316q0 13 -20.5 51.5t-20.5 75.5q0 53 43 91q40 36 93 36q137 0 137 -140z" />
<glyph unicode="&#x201a;" horiz-adv-x="655" d="M469 100q0 -65 -70 -166l-219 -317l-90 53l148 316q-1 14 -21 52t-20 75q0 53 41 90t94 37q137 0 137 -140z" />
<glyph unicode="&#x201c;" horiz-adv-x="1040" d="M928 1462l-148 -315q1 -14 21 -52t20 -75q0 -54 -41 -90.5t-94 -36.5q-137 0 -137 139q0 65 69 166l220 318zM524 1462l-147 -315q1 -14 21 -52t20 -75q0 -54 -41.5 -90.5t-93.5 -36.5q-138 0 -138 139q0 65 70 166l219 318z" />
<glyph unicode="&#x201d;" horiz-adv-x="1040" d="M928 1376q0 -65 -70 -166l-219 -317l-90 53l147 316q0 13 -20.5 51.5t-20.5 75.5q0 53 43 91q40 36 93 36q137 0 137 -140zM524 1376q0 -65 -69 -166l-219 -317l-91 53l148 316q-1 13 -21 51.5t-20 75.5q0 53 41 90t94 37q137 0 137 -140z" />
<glyph unicode="&#x201e;" horiz-adv-x="1040" d="M864 100q0 -65 -69 -166l-220 -317l-90 53l148 316q-1 14 -21 52t-20 75q0 53 41 90t94 37q137 0 137 -140zM453 100q0 -65 -70 -166l-219 -317l-90 53l147 316q-1 14 -21 52t-20 75q0 53 41.5 90t93.5 37q138 0 138 -140z" />
<glyph unicode="&#x2022;" horiz-adv-x="1024" d="M811 729q0 -123 -87 -211t-210 -88q-122 0 -211.5 88.5t-89.5 210.5q0 124 88.5 210.5t214.5 86.5q120 0 207.5 -88t87.5 -209z" />
<glyph unicode="&#x2026;" horiz-adv-x="1735" d="M1579 117q0 -56 -39 -94.5t-96 -38.5t-95 37.5t-38 93.5q0 60 39 98.5t100 38.5q54 0 91.5 -39.5t37.5 -95.5zM1001 117q0 -56 -39 -94.5t-96 -38.5q-56 0 -94.5 37.5t-38.5 93.5q0 60 39 98.5t100 38.5q54 0 91.5 -39.5t37.5 -95.5zM422 117q0 -56 -39.5 -94.5 t-95.5 -38.5q-57 0 -95 37.5t-38 93.5q0 60 39 98.5t100 38.5q54 0 91.5 -39.5t37.5 -95.5z" />
<glyph unicode="&#x202f;" horiz-adv-x="394" />
<glyph unicode="&#x2039;" horiz-adv-x="614" d="M520 178l-80 -74l-409 369l377 383l81 -72l-249 -309z" />
<glyph unicode="&#x203a;" horiz-adv-x="614" d="M586 485l-377 -381l-86 70l252 311l-281 295l80 76z" />
<glyph unicode="&#x205f;" horiz-adv-x="492" />
<glyph unicode="&#x20ac;" d="M1163 1313l-76 -117q-127 119 -276 119q-146 0 -244 -106.5t-131 -295.5h469v-114h-481q-2 -34 -2 -74q0 -27 2 -70h481v-114h-471q22 -192 123.5 -307t253.5 -115q138 0 264 102l74 -115q-167 -131 -346 -131q-235 0 -392 165q-143 152 -186 401h-172v114h160 q-2 35 -2 66q0 27 4 78h-162v114h178q49 236 194 382q161 163 396 163q200 0 342 -145z" />
<glyph unicode="&#x2122;" horiz-adv-x="1071" d="M981 1024h-98v207q0 17 2 84q-10 -30 -31 -86l-82 -205h-67l-82 205q-16 38 -29 86v-291h-98v410h147l100 -267l97 267h141v-410zM434 1350h-133v-326h-100v326h-131v84h364v-84z" />
<glyph unicode="&#xe000;" horiz-adv-x="1040" d="M0 1040h1040v-1040h-1040v1040z" />
<glyph unicode="&#xfb01;" horiz-adv-x="1095" d="M968 1348q0 -48 -34.5 -82.5t-81.5 -34.5q-48 0 -82.5 33t-34.5 79q0 121 119 121q48 0 81 -33t33 -83zM944 0h-184v1024h184v-1024zM625 1460l-41 -92q-49 14 -92 14q-100 0 -132 -82q-12 -31 -12 -147v-129h246v-109h-246v-915h-182v915h-166v109h166v98q0 181 53 256 q89 125 248 125q84 0 158 -43z" />
<glyph unicode="&#xfb02;" horiz-adv-x="1145" d="M968 0h-184v1503h184v-1503zM625 1460l-41 -92q-49 14 -92 14q-100 0 -132 -82q-12 -31 -12 -147v-129h246v-109h-246v-915h-182v915h-166v109h166v98q0 181 53 256q89 125 248 125q84 0 158 -43z" />
<glyph unicode="&#xfb03;" horiz-adv-x="1703" d="M1576 1348q0 -48 -34.5 -82.5t-81.5 -34.5q-48 0 -82.5 33t-34.5 79q0 121 119 121q48 0 81 -33t33 -83zM1552 0h-184v1024h184v-1024zM1233 1460l-41 -92q-49 14 -92 14q-100 0 -132 -82q-12 -31 -12 -147v-129h246v-109h-246v-915h-182v915h-166v109h166v98 q0 181 53 256q89 125 248 125q84 0 158 -43zM625 1460l-41 -92q-49 14 -92 14q-100 0 -132 -82q-12 -31 -12 -147v-129h246v-109h-246v-915h-182v915h-166v109h166v98q0 181 53 256q89 125 248 125q84 0 158 -43z" />
<glyph unicode="&#xfb04;" horiz-adv-x="1753" d="M1576 0h-184v1503h184v-1503zM1233 1460l-41 -92q-49 14 -92 14q-100 0 -132 -82q-12 -31 -12 -147v-129h246v-109h-246v-915h-182v915h-166v109h166v98q0 181 53 256q89 125 248 125q84 0 158 -43zM625 1460l-41 -92q-49 14 -92 14q-100 0 -132 -82q-12 -31 -12 -147 v-129h246v-109h-246v-915h-182v915h-166v109h166v98q0 181 53 256q89 125 248 125q84 0 158 -43z" />
</font>
</defs>
</svg>
